PathFileType	4	(X/Y/Z)	C:\Users\WrightLab\Desktop\Jo\P1_boxCal14.trc
DataRate	CameraRate	NumFrames	NumMarkers	Units	OrigDataRate	OrigDataStartFrame	OrigNumFrames
100.00	100.00	       27	19	mm	100.00	710	       811
Frame#	Time	Headset_Front			Headset_Back			Headset_Left			Headset_Right			Left_Shoulder			Right_Shoulder			Sternum			C7			Left Elbow			Right Elbow			Left Wrist			Right Wrist			Left ASIS			Right ASIS			S2			Left Knee			Right Knee			Left Ankle			Right Ankle			
		X1	Y1	Z1	X2	Y2	Z2	X3	Y3	Z3	X4	Y4	Z4	X5	Y5	Z5	X6	Y6	Z6	X7	Y7	Z7	X8	Y8	Z8	X9	Y9	Z9	X10	Y10	Z10	X11	Y11	Z11	X12	Y12	Z12	X13	Y13	Z13	X14	Y14	Z14	X15	Y15	Z15	X16	Y16	Z16	X17	Y17	Z17	X18	Y18	Z18	X19	Y19	Z19	

710	7.090	-454.34933	392.14365	-1295.70032	-301.89859	760.32977	-1215.43628							-386.53900	843.16119	-1434.68115	-444.30182	1132.72546	-1504.05603													-592.06860	125.43539	-1120.24438	-475.82800	952.40533	-1180.24548	-706.78741	842.52802	-1374.17883				-680.70941	1215.82141	-1407.88232													
711	7.100	-447.06680	391.61407	-1306.32080										-384.28775	843.78619	-1438.81812	-439.21863	1133.07727	-1509.54871													-589.88684	131.52382	-1128.48877	-480.36459	954.53949	-1188.94873				-306.66278	759.71979	-1211.28613																
712	7.110	-438.04739	393.19720	-1317.95898	-704.86041	843.85046	-1394.96960							-382.65964	844.58258	-1442.76245	-433.44409	1134.13623	-1517.62390													-586.05823	139.08430	-1135.49683	-481.82785	956.36194	-1196.46338				-312.52164	759.00311	-1204.54285																
713	7.120	-431.79443	392.57608	-1330.29980										-380.55719	845.48499	-1446.81982	-428.24933	1134.27783	-1522.77820													-584.61652	146.79594	-1145.89990	-485.18997	957.56763	-1206.01050				-318.23981	759.76062	-1200.88928				-704.79974	846.60803	-1402.02161										
714	7.130	-423.51819	393.97888	-1338.98706	-531.57056	997.92767	-402.45676							-377.79056	845.67023	-1449.94055	-422.73267	1133.12256	-1526.13000													-580.23553	154.72942	-1156.72534	-485.30560	960.04108	-1209.04028				-323.92731	761.05200	-1194.62842				-704.94501	847.04388	-1406.79810										
715	7.140	-414.50153	396.31763	-1347.85864										-376.04828	845.62933	-1452.29004	-417.60986	1132.73621	-1531.18091													-580.17554	161.36028	-1168.15198	-487.25287	961.94165	-1219.25964				-334.01303	759.65015	-1195.93848				-704.52277	848.44342	-1419.13757										
716	7.150	-407.70114	399.13901	-1357.36536										-373.22525	844.16827	-1455.85803	-412.03204	1131.71838	-1534.76379													-580.81696	165.35077	-1184.14392	-487.11484	964.52533	-1221.97925				-342.11298	760.64667	-1193.91406				-703.93073	849.20416	-1430.28186										
717	7.160	-400.56607	403.69531	-1363.34534	-655.91742	1231.01099	-1477.24219							-372.17282	844.61383	-1456.39185	-405.37521	1131.78857	-1540.76929													-578.82367	168.85669	-1200.52173	-487.32324	964.59930	-1226.22791				-349.59879	761.31879	-1187.77063				-704.07434	852.87756	-1434.18005										
718	7.170	-394.65121	408.08414	-1374.20972										-369.93137	842.67590	-1457.86792	-399.92569	1130.47119	-1543.36230													-576.06952	172.45003	-1211.45166	-486.46399	967.82361	-1226.53711				-355.76837	762.69818	-1183.57910				-704.42963	855.18976	-1442.95630										
719	7.180	-386.97430	413.37408	-1381.50696	-229.99036	729.29236	238.22066							-366.30542	843.56732	-1459.06421	-394.41699	1129.72949	-1546.79260													-572.20721	171.74402	-1228.49084	-486.52823	969.00488	-1232.77979				-362.51868	764.35797	-1179.10315				-702.71674	857.55035	-1452.67029										
720	7.190	-381.21988	417.34998	-1387.38062										-366.59091	841.44196	-1458.70447																-567.67242	171.06668	-1244.19751	-486.69568	971.62311	-1231.10364				-370.86752	765.15594	-1176.40808				-701.65094	857.84369	-1464.64160							-619.66760	1073.99231	-2049.41406	
721	7.200	-375.80984	421.09781	-1393.83215	-385.97260	1127.25500	-1548.77429							-363.81613	840.74768	-1460.46338																-562.05194	169.16270	-1261.10034	-487.15790	973.36688	-1235.60767				-377.36777	767.35645	-1173.09204				-699.08917	860.82867	-1469.26379							-612.02167	1071.73584	-2051.07324	
722	7.210	-370.22684	425.73260	-1400.03491										-362.52982	840.31268	-1461.12903	-380.77408	1127.02234	-1551.44592													-556.57001	163.52921	-1278.58081	-489.12479	976.17334	-1236.98242				-383.85440	769.95715	-1169.05212				-698.01599	859.89618	-1486.85339										
723	7.220	-367.63989	429.44272	-1405.43188	-627.99554	1238.90845	-1533.37793							-358.03320	841.44598	-1461.70276																-550.55304	158.73544	-1294.00989	-492.93661	978.61450	-1240.14453				-392.03885	772.41705	-1168.13757				-696.36310	860.61426	-1491.14685										
724	7.230	-364.47763	434.78360	-1410.32849										-360.32922	839.80170	-1460.44275	-622.66327	1238.02722	-1538.30371													-540.88281	152.20322	-1308.63904	-496.83405	981.36694	-1241.57837				-399.56738	774.89288	-1166.09912				-693.43573	865.14771	-1494.82788							-379.38596	1123.45752	-1550.58875	
725	7.240	-362.42783	436.71872	-1414.08264	-374.45639	1124.85107	-1559.78027							-357.86884	840.02075	-1461.78235																-533.67401	144.02066	-1327.03870	-501.33493	983.52295	-1245.90784				-405.53580	777.36188	-1163.21863				-691.99341	865.93347	-1509.67285	-432.61087	1273.35193	-1202.49072							
726	7.250	-361.75372	437.60037	-1422.67566										-356.66147	840.35718	-1462.13135	-613.80682	1240.18896	-1554.39172													-524.90039	136.62199	-1342.15125	-507.23123	985.29358	-1250.25769				-411.50232	782.78040	-1158.47278				-689.09418	867.53717	-1510.58667							-370.45844	1123.83044	-1554.24951	
727	7.260	-360.84521	438.70007	-1427.86963	-505.74643	74.42799	-1446.10901							-354.86646	841.49402	-1462.66565	-517.02423	1180.47339	-1627.83838													-514.30853	128.82770	-1353.03064	-513.29626	986.41925	-1255.36670				-418.76843	785.23138	-1158.08496				-686.34003	869.51440	-1520.04248				-608.75726	1241.43005	-1563.31543				
728	7.270	-360.47238	440.75827	-1428.54529										-353.45059	843.66711	-1465.05737																-503.59955	119.07895	-1369.62207	-517.91779	989.16357	-1257.15894				-427.11557	786.54022	-1160.23132				-683.80121	869.71918	-1526.07898				-605.09790	1241.44397	-1568.09839	-360.32431	1126.50684	-1560.23535	
729	7.280	-359.08337	441.41025	-1434.89075	-476.95410	64.96638	-1474.36218							-352.17813	844.47363	-1464.84290																-493.36151	111.33953	-1384.70679	-523.70892	989.94556	-1263.28137				-433.66727	790.16650	-1158.60730				-680.92914	870.52313	-1533.05664				-601.07373	1240.95068	-1572.09473				
730	7.290	-360.46075	444.71649	-1431.63684										-350.20642	845.12286	-1466.77600	-465.16159	58.22253	-1486.05884													-482.53592	101.52956	-1400.41614	-529.90778	991.65845	-1267.17908				-440.89551	793.95319	-1159.83215				-677.85614	870.49670	-1538.41052				-596.74945	1242.15906	-1579.78149				
731	7.300	-361.47412	444.30328	-1435.43958	-451.43665	53.53152	-1497.64233							-348.79733	845.91174	-1467.44812																-472.09674	91.23867	-1417.13062	-533.79468	992.24878	-1273.87354				-447.48007	795.85150	-1159.24573				-675.44012	871.26385	-1543.82666				-592.45343	1242.98730	-1586.54236				
732	7.310	-364.28613	442.40012	-1441.41931	-438.46875	49.43798	-1509.33521							-346.93826	847.18201	-1468.60254																-460.43686	84.06384	-1428.10535	-537.99951	994.86145	-1276.80249				-454.59631	797.23517	-1160.54590				-671.48187	871.62415	-1549.41174				-588.61011	1243.38354	-1591.74927				
733	7.320	-365.07831	441.00284	-1445.57092										-345.31589	847.93585	-1469.66174																-451.01108	74.67620	-1445.21838	-543.48260	994.32977	-1283.44556				-462.46921	799.16107	-1161.42993				-668.19763	871.70355	-1553.95459				-584.76123	1243.82751	-1596.80481				
734	7.330	-366.85660	440.99155	-1443.35645										-342.66507	848.00165	-1470.64197																-442.06409	67.99167	-1457.94055	-546.27759	996.33917	-1288.33545				-470.18365	801.17255	-1163.29822				-664.77441	872.57996	-1559.46533				-581.55823	1244.42981	-1601.92224				
735	7.340	-369.46118	439.08334	-1442.50061										-341.37253	848.66644	-1470.80957																-432.68698	62.83759	-1472.00061	-550.52197	996.98926	-1293.64966				-477.51599	802.31628	-1165.30322				-660.34113	872.59479	-1564.20435				-577.76929	1244.00317	-1605.49121				
736	7.350	-371.99738	435.91730	-1447.62793										-338.82916	849.02936	-1470.69019																-425.48166	59.63743	-1479.98474	-553.27441	996.92963	-1299.00134				-484.68765	802.74835	-1165.92444				-656.00415	872.53693	-1568.62207										
